<?xml version="1.0" standalone="no"?><!DOCTYPE svg PUBLIC "-//W3C//DTD SVG 1.1//EN" "http://www.w3.org/Graphics/SVG/1.1/DTD/svg11.dtd"><svg t="1627184411205" class="icon" viewBox="0 0 1024 1024" version="1.1" xmlns="http://www.w3.org/2000/svg" p-id="1244" xmlns:xlink="http://www.w3.org/1999/xlink" width="200" height="200"><defs><style type="text/css">@font-face { font-family: feedback-iconfont; src: url("//at.alicdn.com/t/font_1031158_1uhr8ri0pk5.eot?#iefix") format("embedded-opentype"), url("//at.alicdn.com/t/font_1031158_1uhr8ri0pk5.woff2") format("woff2"), url("//at.alicdn.com/t/font_1031158_1uhr8ri0pk5.woff") format("woff"), url("//at.alicdn.com/t/font_1031158_1uhr8ri0pk5.ttf") format("truetype"), url("//at.alicdn.com/t/font_1031158_1uhr8ri0pk5.svg#iconfont") format("svg"); }
</style></defs><path d="M936.17152 256.99328L300.10368 772.12672h487.13216l136.45312-30.98624 18.68288-164.51584z" fill="#F4CA1C" p-id="1245"></path><path d="M813.47072 813.96224H215.64928A154.47552 154.47552 0 0 1 61.44 659.56864V236.3136A154.47552 154.47552 0 0 1 215.64928 81.92h597.82144A154.47552 154.47552 0 0 1 967.68 236.3136v423.25504a154.47552 154.47552 0 0 1-154.20928 154.3936zM215.64928 152.064a84.28544 84.28544 0 0 0-84.13696 84.2496v423.25504a84.28544 84.28544 0 0 0 84.14208 84.23936h597.81632a84.28544 84.28544 0 0 0 84.13696-84.23936V236.3136A84.28544 84.28544 0 0 0 813.47072 152.064H215.64928zM834.56 947.2H194.56a35.07712 35.07712 0 0 1 0-70.144h640a35.07712 35.07712 0 0 1 0 70.144z" fill="#595BB3" p-id="1246"></path></svg>